<svg width="90" height="10" viewBox="0 0 90 10" fill="none" xmlns="http://www.w3.org/2000/svg">
<path d="M4.36791 5.11194C5.19991 5.21594 5.79591 5.44394 6.15591 5.79594C6.51591 6.13994 6.69591 6.55194 6.69591 7.03194C6.69591 7.41594 6.58391 7.75594 6.35991 8.05194C6.14391 8.34794 5.82791 8.57994 5.41191 8.74794C4.99591 8.91594 4.50391 8.99994 3.93591 8.99994C3.73591 8.99994 3.56391 8.99594 3.41991 8.98794C2.92391 8.97194 2.44791 8.96394 1.99191 8.96394C1.33591 8.96394 0.839906 8.97594 0.503906 8.99994V8.75994C0.791906 8.74394 0.999906 8.71194 1.12791 8.66394C1.26391 8.61594 1.35591 8.52394 1.40391 8.38794C1.45191 8.25194 1.47591 8.03194 1.47591 7.72794V2.97594C1.47591 2.67194 1.45191 2.45194 1.40391 2.31594C1.35591 2.17994 1.26391 2.08794 1.12791 2.03994C0.999906 1.99194 0.791906 1.95994 0.503906 1.94394V1.70394C0.839906 1.72794 1.32791 1.73994 1.96791 1.73994L3.19191 1.72794C3.32791 1.71994 3.48391 1.71594 3.65991 1.71594C4.43591 1.71594 5.03191 1.86794 5.44791 2.17194C5.86391 2.46794 6.07191 2.86394 6.07191 3.35994C6.07191 3.74394 5.93591 4.08794 5.66391 4.39194C5.39191 4.69594 4.95991 4.92794 4.36791 5.08794V5.11194ZM3.35991 1.94394C3.14391 1.94394 2.97991 1.97194 2.86791 2.02794C2.76391 2.08394 2.69191 2.18394 2.65191 2.32794C2.61191 2.47194 2.59191 2.68794 2.59191 2.97594V5.08794H3.27591C3.89191 5.08794 4.31991 4.94794 4.55991 4.66794C4.79991 4.38794 4.91991 3.99594 4.91991 3.49194C4.91991 2.97194 4.79591 2.58394 4.54791 2.32794C4.29991 2.07194 3.90391 1.94394 3.35991 1.94394ZM3.37191 8.72394C4.09991 8.72394 4.63591 8.57994 4.97991 8.29194C5.32391 7.99594 5.49591 7.55994 5.49591 6.98394C5.49591 6.42394 5.33591 6.00394 5.01591 5.72394C4.69591 5.43594 4.18391 5.29194 3.47991 5.29194H2.59191V7.72794C2.59191 8.01594 2.61191 8.22794 2.65191 8.36394C2.69191 8.49994 2.76391 8.59594 2.86791 8.65194C2.97991 8.69994 3.14791 8.72394 3.37191 8.72394Z" fill="white"/>
<path d="M14.7561 1.94394C14.4761 1.95994 14.2681 2.00394 14.1321 2.07594C13.9961 2.13994 13.9041 2.25194 13.8561 2.41194C13.8081 2.56394 13.7841 2.79194 13.7841 3.09594V5.74794C13.7841 6.29994 13.7441 6.77194 13.6641 7.16394C13.5921 7.54794 13.4681 7.88394 13.2921 8.17194C13.1001 8.47594 12.8201 8.71994 12.4521 8.90394C12.0921 9.07994 11.6801 9.16794 11.2161 9.16794C10.3921 9.16794 9.76006 8.99194 9.32006 8.63994C8.96806 8.32794 8.73206 7.97194 8.61206 7.57194C8.49206 7.17194 8.43206 6.57594 8.43206 5.78394V2.97594C8.43206 2.67194 8.40806 2.45194 8.36006 2.31594C8.31206 2.17994 8.22006 2.08794 8.08406 2.03994C7.95606 1.99194 7.74806 1.95994 7.46006 1.94394V1.70394C7.79606 1.72794 8.30806 1.73994 8.99606 1.73994C9.63606 1.73994 10.1441 1.72794 10.5201 1.70394V1.94394C10.2321 1.95994 10.0201 1.99194 9.88406 2.03994C9.75606 2.08794 9.66806 2.17994 9.62006 2.31594C9.57206 2.45194 9.54806 2.67194 9.54806 2.97594V5.98794C9.54806 6.57994 9.58806 7.07194 9.66806 7.46394C9.74806 7.84794 9.91606 8.15994 10.1721 8.39994C10.4361 8.63194 10.8201 8.74794 11.3241 8.74794C12.1241 8.74794 12.6881 8.49594 13.0161 7.99194C13.3441 7.48794 13.5081 6.78394 13.5081 5.87994V3.09594C13.5081 2.66394 13.4281 2.36794 13.2681 2.20794C13.1161 2.04794 12.8321 1.95994 12.4161 1.94394V1.70394C12.7041 1.72794 13.1121 1.73994 13.6401 1.73994C14.1201 1.73994 14.4921 1.72794 14.7561 1.70394V1.94394Z" fill="white"/>
<path d="M18.6225 1.94394C18.3345 1.95994 18.1225 1.99194 17.9865 2.03994C17.8585 2.08794 17.7705 2.17994 17.7225 2.31594C17.6745 2.45194 17.6505 2.67194 17.6505 2.97594V7.72794C17.6505 8.03194 17.6745 8.25194 17.7225 8.38794C17.7705 8.52394 17.8585 8.61594 17.9865 8.66394C18.1225 8.71194 18.3345 8.74394 18.6225 8.75994V8.99994C18.2545 8.97594 17.7465 8.96394 17.0985 8.96394C16.4105 8.96394 15.8985 8.97594 15.5625 8.99994V8.75994C15.8505 8.74394 16.0585 8.71194 16.1865 8.66394C16.3225 8.61594 16.4145 8.52394 16.4625 8.38794C16.5105 8.25194 16.5345 8.03194 16.5345 7.72794V2.97594C16.5345 2.67194 16.5105 2.45194 16.4625 2.31594C16.4145 2.17994 16.3225 2.08794 16.1865 2.03994C16.0585 1.99194 15.8505 1.95994 15.5625 1.94394V1.70394C15.8985 1.72794 16.4105 1.73994 17.0985 1.73994C17.7385 1.73994 18.2465 1.72794 18.6225 1.70394V1.94394Z" fill="white"/>
<path d="M22.6889 1.94394C22.4009 1.95994 22.1889 1.99194 22.0529 2.03994C21.9249 2.08794 21.8369 2.17994 21.7889 2.31594C21.7409 2.45194 21.7169 2.67194 21.7169 2.97594V7.72794C21.7169 8.03194 21.7409 8.25194 21.7889 8.38794C21.8369 8.52394 21.9249 8.61594 22.0529 8.66394C22.1889 8.70394 22.4009 8.72394 22.6889 8.72394H23.4449C23.9969 8.72394 24.4249 8.55994 24.7289 8.23194C25.0409 7.90394 25.2289 7.35994 25.2929 6.59994H25.5689C25.5449 6.84794 25.5329 7.17594 25.5329 7.58394C25.5329 7.99994 25.5609 8.47194 25.6169 8.99994C25.0969 8.97594 24.2209 8.96394 22.9889 8.96394C21.5089 8.96394 20.3889 8.97594 19.6289 8.99994V8.75994C19.9169 8.74394 20.1249 8.71194 20.2529 8.66394C20.3889 8.61594 20.4809 8.52394 20.5289 8.38794C20.5769 8.25194 20.6009 8.03194 20.6009 7.72794V2.97594C20.6009 2.67194 20.5769 2.45194 20.5289 2.31594C20.4809 2.17994 20.3889 2.08794 20.2529 2.03994C20.1249 1.99194 19.9169 1.95994 19.6289 1.94394V1.70394C19.9649 1.72794 20.4769 1.73994 21.1649 1.73994C21.8049 1.73994 22.3129 1.72794 22.6889 1.70394V1.94394Z" fill="white"/>
<path d="M32.1717 1.70394C32.1157 2.23194 32.0877 2.70394 32.0877 3.11994C32.0877 3.53594 32.0997 3.86394 32.1237 4.10394H31.8477C31.7997 3.54394 31.7237 3.11594 31.6197 2.81994C31.5157 2.52394 31.3477 2.31194 31.1157 2.18394C30.8837 2.04794 30.5517 1.97994 30.1197 1.97994H29.3517V7.60794C29.3517 7.94394 29.3837 8.18794 29.4477 8.33994C29.5117 8.49194 29.6237 8.59594 29.7837 8.65194C29.9437 8.70794 30.2037 8.74394 30.5637 8.75994V8.99994C30.1477 8.97594 29.5597 8.96394 28.7997 8.96394C27.9997 8.96394 27.4077 8.97594 27.0237 8.99994V8.75994C27.3837 8.74394 27.6437 8.70794 27.8037 8.65194C27.9637 8.59594 28.0757 8.49194 28.1397 8.33994C28.2037 8.18794 28.2357 7.94394 28.2357 7.60794V1.97994H27.4677C27.0357 1.97994 26.7037 2.04794 26.4717 2.18394C26.2397 2.31194 26.0717 2.52394 25.9677 2.81994C25.8637 3.11594 25.7877 3.54394 25.7397 4.10394H25.4637C25.4877 3.84794 25.4997 3.51994 25.4997 3.11994C25.4997 2.70394 25.4717 2.23194 25.4157 1.70394C26.0797 1.72794 27.2077 1.73994 28.7997 1.73994C30.3837 1.73994 31.5077 1.72794 32.1717 1.70394Z" fill="white"/>
<path d="M33.5392 7.63194C33.7472 7.63194 33.9273 7.70794 34.0793 7.85994C34.2313 8.01194 34.3073 8.19194 34.3073 8.39994C34.3073 8.60794 34.2313 8.78794 34.0793 8.93994C33.9273 9.09194 33.7472 9.16794 33.5392 9.16794C33.3312 9.16794 33.1512 9.09194 32.9992 8.93994C32.8472 8.78794 32.7713 8.60794 32.7713 8.39994C32.7713 8.19194 32.8472 8.01194 32.9992 7.85994C33.1512 7.70794 33.3312 7.63194 33.5392 7.63194Z" fill="white"/>
<path d="M44.4347 1.73994C44.9387 1.73994 45.2867 1.72794 45.4787 1.70394V1.94394C45.2627 1.99194 45.0787 2.10794 44.9267 2.29194C44.7747 2.46794 44.6347 2.74794 44.5067 3.13194L42.4427 9.05994H42.2507L40.4027 4.48794L38.4467 9.05994H38.2547L35.8067 2.71194C35.6147 2.21594 35.3387 1.95994 34.9787 1.94394V1.70394C35.2987 1.72794 35.7267 1.73994 36.2627 1.73994C36.9507 1.73994 37.4627 1.72794 37.7987 1.70394V1.94394C37.4947 1.95994 37.2787 1.99994 37.1507 2.06394C37.0307 2.11994 36.9707 2.22394 36.9707 2.37594C36.9707 2.49594 37.0147 2.68794 37.1027 2.95194L38.8067 7.59594L40.2587 4.15194L39.6827 2.71194C39.4747 2.21594 39.1987 1.95994 38.8547 1.94394V1.70394C39.1827 1.72794 39.6107 1.73994 40.1387 1.73994C40.8267 1.73994 41.3387 1.72794 41.6747 1.70394V1.94394C41.3707 1.95994 41.1547 1.99994 41.0267 2.06394C40.8987 2.11994 40.8347 2.22794 40.8347 2.38794C40.8347 2.52394 40.8827 2.71194 40.9787 2.95194L42.7187 7.51194L44.0027 3.75594C44.1547 3.30794 44.2307 2.95594 44.2307 2.69994C44.2307 2.43594 44.1547 2.24794 44.0027 2.13594C43.8587 2.02394 43.6387 1.95994 43.3427 1.94394V1.70394C43.5827 1.72794 43.9467 1.73994 44.4347 1.73994Z" fill="white"/>
<path d="M46.0148 9.16794H45.6188L48.8828 0.335938H49.2788L46.0148 9.16794Z" fill="white"/>
<path d="M59.0597 1.73994C59.5637 1.73994 59.9117 1.72794 60.1037 1.70394V1.94394C59.8877 1.99194 59.7037 2.10794 59.5517 2.29194C59.3997 2.46794 59.2597 2.74794 59.1317 3.13194L57.0677 9.05994H56.8757L55.0277 4.48794L53.0717 9.05994H52.8797L50.4317 2.71194C50.2397 2.21594 49.9637 1.95994 49.6037 1.94394V1.70394C49.9237 1.72794 50.3517 1.73994 50.8877 1.73994C51.5757 1.73994 52.0877 1.72794 52.4237 1.70394V1.94394C52.1197 1.95994 51.9037 1.99994 51.7757 2.06394C51.6557 2.11994 51.5957 2.22394 51.5957 2.37594C51.5957 2.49594 51.6397 2.68794 51.7277 2.95194L53.4317 7.59594L54.8837 4.15194L54.3077 2.71194C54.0997 2.21594 53.8237 1.95994 53.4797 1.94394V1.70394C53.8077 1.72794 54.2357 1.73994 54.7637 1.73994C55.4517 1.73994 55.9637 1.72794 56.2997 1.70394V1.94394C55.9957 1.95994 55.7797 1.99994 55.6517 2.06394C55.5237 2.11994 55.4597 2.22794 55.4597 2.38794C55.4597 2.52394 55.5077 2.71194 55.6037 2.95194L57.3437 7.51194L58.6277 3.75594C58.7797 3.30794 58.8557 2.95594 58.8557 2.69994C58.8557 2.43594 58.7797 2.24794 58.6277 2.13594C58.4837 2.02394 58.2637 1.95994 57.9677 1.94394V1.70394C58.2077 1.72794 58.5717 1.73994 59.0597 1.73994Z" fill="white"/>
<path d="M64.3085 1.53594C65.0445 1.53594 65.6885 1.68394 66.2405 1.97994C66.8005 2.26794 67.2325 2.69594 67.5365 3.26394C67.8405 3.82394 67.9925 4.49594 67.9925 5.27994C67.9925 6.04794 67.8325 6.72794 67.5125 7.31994C67.2005 7.90394 66.7645 8.35994 66.2045 8.68794C65.6445 9.00794 65.0085 9.16794 64.2965 9.16794C63.5605 9.16794 62.9125 9.02394 62.3525 8.73594C61.8005 8.43994 61.3725 8.01194 61.0685 7.45194C60.7645 6.88394 60.6125 6.20794 60.6125 5.42394C60.6125 4.65594 60.7685 3.97994 61.0805 3.39594C61.4005 2.80394 61.8405 2.34794 62.4005 2.02794C62.9605 1.69994 63.5965 1.53594 64.3085 1.53594ZM64.2605 1.75194C63.7725 1.75194 63.3405 1.90794 62.9645 2.21994C62.5965 2.52394 62.3125 2.95194 62.1125 3.50394C61.9125 4.04794 61.8125 4.67194 61.8125 5.37594C61.8125 6.08794 61.9245 6.71594 62.1485 7.25994C62.3725 7.80394 62.6765 8.22394 63.0605 8.51994C63.4445 8.80794 63.8725 8.95194 64.3445 8.95194C64.8325 8.95194 65.2605 8.79994 65.6285 8.49594C66.0045 8.18394 66.2925 7.75594 66.4925 7.21194C66.6925 6.65994 66.7925 6.03194 66.7925 5.32794C66.7925 4.61594 66.6805 3.98794 66.4565 3.44394C66.2325 2.89994 65.9285 2.48394 65.5445 2.19594C65.1605 1.89994 64.7325 1.75194 64.2605 1.75194Z" fill="white"/>
<path d="M76.1034 8.49594C75.9514 8.71194 75.7754 8.87994 75.5754 8.99994C75.3834 9.11194 75.1514 9.16794 74.8794 9.16794C74.2074 9.16794 73.7954 8.86394 73.6434 8.25594L73.2714 6.75594C73.1594 6.30794 72.9914 6.00794 72.7674 5.85594C72.5514 5.70394 72.2274 5.62794 71.7954 5.62794H71.1114V7.72794C71.1114 8.03194 71.1354 8.25194 71.1834 8.38794C71.2314 8.52394 71.3194 8.61594 71.4474 8.66394C71.5834 8.71194 71.7954 8.74394 72.0834 8.75994V8.99994C71.7154 8.97594 71.2074 8.96394 70.5594 8.96394C69.8714 8.96394 69.3594 8.97594 69.0234 8.99994V8.75994C69.3114 8.74394 69.5194 8.71194 69.6474 8.66394C69.7834 8.61594 69.8754 8.52394 69.9234 8.38794C69.9714 8.25194 69.9954 8.03194 69.9954 7.72794V2.97594C69.9954 2.67194 69.9714 2.45194 69.9234 2.31594C69.8754 2.17994 69.7834 2.08794 69.6474 2.03994C69.5194 1.99194 69.3114 1.95994 69.0234 1.94394V1.70394C69.3594 1.72794 69.8474 1.73994 70.4874 1.73994L71.7114 1.72794C71.8474 1.71994 72.0034 1.71594 72.1794 1.71594C73.0754 1.71594 73.7594 1.88394 74.2314 2.21994C74.7114 2.55594 74.9514 2.99194 74.9514 3.52794C74.9514 3.99194 74.7634 4.41594 74.3874 4.79994C74.0194 5.18394 73.4114 5.42794 72.5634 5.53194C72.7234 5.54794 72.8594 5.56394 72.9714 5.57994C73.3954 5.64394 73.7314 5.77194 73.9794 5.96394C74.2274 6.15594 74.4034 6.46394 74.5074 6.88794L74.7714 7.97994C74.8354 8.25994 74.9034 8.45994 74.9754 8.57994C75.0554 8.69194 75.1554 8.74794 75.2754 8.74794C75.4754 8.74794 75.6954 8.61194 75.9354 8.33994L76.1034 8.49594ZM71.8794 1.94394C71.6634 1.94394 71.4994 1.97194 71.3874 2.02794C71.2834 2.08394 71.2114 2.18394 71.1714 2.32794C71.1314 2.47194 71.1114 2.68794 71.1114 2.97594V5.38794H71.9154C72.6194 5.38794 73.0994 5.23994 73.3554 4.94394C73.6194 4.63994 73.7514 4.21194 73.7514 3.65994C73.7514 3.08394 73.6034 2.65594 73.3074 2.37594C73.0194 2.08794 72.5434 1.94394 71.8794 1.94394Z" fill="white"/>
<path d="M79.7877 1.70394C81.0357 1.70394 81.9717 2.00794 82.5957 2.61594C83.2277 3.21594 83.5437 4.09594 83.5437 5.25594C83.5437 6.00794 83.3917 6.66794 83.0877 7.23594C82.7837 7.79594 82.3397 8.23194 81.7557 8.54394C81.1797 8.84794 80.4877 8.99994 79.6797 8.99994L78.9837 8.98794C78.5357 8.97194 78.2077 8.96394 77.9997 8.96394C77.3437 8.96394 76.8477 8.97594 76.5117 8.99994V8.75994C76.7997 8.74394 77.0077 8.71194 77.1357 8.66394C77.2717 8.61594 77.3637 8.52394 77.4117 8.38794C77.4597 8.25194 77.4837 8.03194 77.4837 7.72794V2.97594C77.4837 2.67194 77.4597 2.45194 77.4117 2.31594C77.3637 2.17994 77.2717 2.08794 77.1357 2.03994C77.0077 1.99194 76.7997 1.95994 76.5117 1.94394V1.70394C76.7917 1.72794 77.1797 1.73994 77.6757 1.73994L78.6957 1.72794C79.2397 1.71194 79.6037 1.70394 79.7877 1.70394ZM79.4877 1.91994C79.2397 1.91994 79.0517 1.94794 78.9237 2.00394C78.8037 2.05994 78.7197 2.15994 78.6717 2.30394C78.6237 2.44794 78.5997 2.66394 78.5997 2.95194V7.75194C78.5997 8.03994 78.6237 8.25594 78.6717 8.39994C78.7197 8.54394 78.8037 8.64394 78.9237 8.69994C79.0517 8.75594 79.2437 8.78394 79.4997 8.78394C80.2277 8.78394 80.7997 8.65594 81.2157 8.39994C81.6317 8.13594 81.9237 7.75194 82.0917 7.24794C82.2597 6.74394 82.3437 6.09594 82.3437 5.30394C82.3437 4.13594 82.1277 3.27994 81.6957 2.73594C81.2637 2.19194 80.5277 1.91994 79.4877 1.91994Z" fill="white"/>
<path d="M87.2711 1.53594C87.6231 1.53594 87.8991 1.57594 88.0991 1.65594C88.3071 1.72794 88.5191 1.83594 88.7351 1.97994C88.9111 2.09194 89.0471 2.14794 89.1431 2.14794C89.2151 2.14794 89.2711 2.10794 89.3111 2.02794C89.3511 1.93994 89.3831 1.80394 89.4071 1.61994H89.6831C89.6431 2.03594 89.6231 2.77194 89.6231 3.82794H89.3471C89.2991 3.25194 89.1111 2.76394 88.7831 2.36394C88.4631 1.96394 87.9951 1.76394 87.3791 1.76394C86.9551 1.76394 86.6031 1.87594 86.3231 2.09994C86.0511 2.32394 85.9151 2.60794 85.9151 2.95194C85.9151 3.19994 85.9751 3.41594 86.0951 3.59994C86.2231 3.78394 86.3831 3.94394 86.5751 4.07994C86.7751 4.20794 87.0551 4.36794 87.4151 4.55994L87.8111 4.77594C88.3071 5.03994 88.7031 5.27594 88.9991 5.48394C89.3031 5.69194 89.5471 5.93194 89.7311 6.20394C89.9151 6.46794 90.0071 6.77594 90.0071 7.12794C90.0071 7.77594 89.7711 8.27994 89.2991 8.63994C88.8351 8.99194 88.2511 9.16794 87.5471 9.16794C87.1631 9.16794 86.8471 9.12794 86.5991 9.04794C86.3591 8.96794 86.1271 8.85994 85.9031 8.72394C85.7271 8.61194 85.5911 8.55594 85.4951 8.55594C85.4231 8.55594 85.3671 8.59994 85.3271 8.68794C85.2871 8.76794 85.2551 8.89994 85.2311 9.08394H84.9551C84.9871 8.69194 85.0031 7.81194 85.0031 6.44394H85.2791C85.3351 7.18794 85.5351 7.78794 85.8791 8.24394C86.2231 8.69994 86.7511 8.92794 87.4631 8.92794C87.8631 8.92794 88.2071 8.81594 88.4951 8.59194C88.7911 8.35994 88.9391 8.01994 88.9391 7.57194C88.9391 7.30794 88.8631 7.07594 88.7111 6.87594C88.5591 6.66794 88.3551 6.48394 88.0991 6.32394C87.8431 6.16394 87.4871 5.96394 87.0311 5.72394C86.3751 5.38794 85.8751 5.05194 85.5311 4.71594C85.1871 4.37994 85.0151 3.94394 85.0151 3.40794C85.0151 2.81594 85.2311 2.35594 85.6631 2.02794C86.1031 1.69994 86.6391 1.53594 87.2711 1.53594Z" fill="white"/>
</svg>
