<svg width="44" height="44" viewBox="0 0 44 44" fill="none" xmlns="http://www.w3.org/2000/svg">
<path fill-rule="evenodd" clip-rule="evenodd" d="M4 40L40 40L40 4L4 4L4 40ZM44 44L44 3.8466e-06L3.8466e-06 0L0 44L44 44Z" fill="url(#paint0_radial_530_445)"/>
<path d="M8 10C8 8.89543 8.89543 8 10 8H18C19.1046 8 20 8.89543 20 10C20 11.1046 19.1046 12 18 12H10C8.89543 12 8 11.1046 8 10Z" fill="url(#paint1_radial_530_445)"/>
<path d="M8 26C8 24.8954 8.89543 24 10 24H20C21.1046 24 22 24.8954 22 26C22 27.1046 21.1046 28 20 28H10C8.89543 28 8 27.1046 8 26Z" fill="url(#paint2_radial_530_445)"/>
<path d="M8 34C8 32.8954 8.89543 32 10 32H14C15.1046 32 16 32.8954 16 34C16 35.1046 15.1046 36 14 36H10C8.89543 36 8 35.1046 8 34Z" fill="url(#paint3_radial_530_445)"/>
<path d="M8 18C8 16.8954 8.89543 16 10 16C11.1046 16 12 16.8954 12 18C12 19.1046 11.1046 20 10 20C8.89543 20 8 19.1046 8 18Z" fill="url(#paint4_radial_530_445)"/>
<path d="M28 18C28 16.8954 28.8954 16 30 16H34C35.1046 16 36 16.8954 36 18C36 19.1046 35.1046 20 34 20H30C28.8954 20 28 19.1046 28 18Z" fill="url(#paint5_radial_530_445)"/>
<path d="M16 18C16 16.8954 16.8954 16 18 16H22C23.1046 16 24 16.8954 24 18C24 19.1046 23.1046 20 22 20H18C16.8954 20 16 19.1046 16 18Z" fill="url(#paint6_radial_530_445)"/>
<path d="M24 10C24 8.89543 24.8954 8 26 8H34C35.1046 8 36 8.89543 36 10C36 11.1046 35.1046 12 34 12H26C24.8954 12 24 11.1046 24 10Z" fill="url(#paint7_radial_530_445)"/>
<path d="M26 26C26 24.8954 26.8954 24 28 24H34C35.1046 24 36 24.8954 36 26C36 27.1046 35.1046 28 34 28H28C26.8954 28 26 27.1046 26 26Z" fill="url(#paint8_radial_530_445)"/>
<path d="M20 34C20 32.8954 20.8954 32 22 32H34C35.1046 32 36 32.8954 36 34C36 35.1046 35.1046 36 34 36H22C20.8954 36 20 35.1046 20 34Z" fill="url(#paint9_radial_530_445)"/>
<defs>
<radialGradient id="paint0_radial_530_445" cx="0" cy="0" r="1" gradientUnits="userSpaceOnUse" gradientTransform="translate(22 22) rotate(-135.659) scale(30.7612 116.292)">
<stop stop-color="#3E71FA"/>
<stop offset="0.38" stop-color="#409DB1"/>
<stop offset="1" stop-color="#42B883"/>
</radialGradient>
<radialGradient id="paint1_radial_530_445" cx="0" cy="0" r="1" gradientUnits="userSpaceOnUse" gradientTransform="translate(22 22) rotate(-135.659) scale(30.7612 116.292)">
<stop stop-color="#3E71FA"/>
<stop offset="0.38" stop-color="#409DB1"/>
<stop offset="1" stop-color="#42B883"/>
</radialGradient>
<radialGradient id="paint2_radial_530_445" cx="0" cy="0" r="1" gradientUnits="userSpaceOnUse" gradientTransform="translate(22 22) rotate(-135.659) scale(30.7612 116.292)">
<stop stop-color="#3E71FA"/>
<stop offset="0.38" stop-color="#409DB1"/>
<stop offset="1" stop-color="#42B883"/>
</radialGradient>
<radialGradient id="paint3_radial_530_445" cx="0" cy="0" r="1" gradientUnits="userSpaceOnUse" gradientTransform="translate(22 22) rotate(-135.659) scale(30.7612 116.292)">
<stop stop-color="#3E71FA"/>
<stop offset="0.38" stop-color="#409DB1"/>
<stop offset="1" stop-color="#42B883"/>
</radialGradient>
<radialGradient id="paint4_radial_530_445" cx="0" cy="0" r="1" gradientUnits="userSpaceOnUse" gradientTransform="translate(22 22) rotate(-135.659) scale(30.7612 116.292)">
<stop stop-color="#3E71FA"/>
<stop offset="0.38" stop-color="#409DB1"/>
<stop offset="1" stop-color="#42B883"/>
</radialGradient>
<radialGradient id="paint5_radial_530_445" cx="0" cy="0" r="1" gradientUnits="userSpaceOnUse" gradientTransform="translate(22 22) rotate(-135.659) scale(30.7612 116.292)">
<stop stop-color="#3E71FA"/>
<stop offset="0.38" stop-color="#409DB1"/>
<stop offset="1" stop-color="#42B883"/>
</radialGradient>
<radialGradient id="paint6_radial_530_445" cx="0" cy="0" r="1" gradientUnits="userSpaceOnUse" gradientTransform="translate(22 22) rotate(-135.659) scale(30.7612 116.292)">
<stop stop-color="#3E71FA"/>
<stop offset="0.38" stop-color="#409DB1"/>
<stop offset="1" stop-color="#42B883"/>
</radialGradient>
<radialGradient id="paint7_radial_530_445" cx="0" cy="0" r="1" gradientUnits="userSpaceOnUse" gradientTransform="translate(22 22) rotate(-135.659) scale(30.7612 116.292)">
<stop stop-color="#3E71FA"/>
<stop offset="0.38" stop-color="#409DB1"/>
<stop offset="1" stop-color="#42B883"/>
</radialGradient>
<radialGradient id="paint8_radial_530_445" cx="0" cy="0" r="1" gradientUnits="userSpaceOnUse" gradientTransform="translate(22 22) rotate(-135.659) scale(30.7612 116.292)">
<stop stop-color="#3E71FA"/>
<stop offset="0.38" stop-color="#409DB1"/>
<stop offset="1" stop-color="#42B883"/>
</radialGradient>
<radialGradient id="paint9_radial_530_445" cx="0" cy="0" r="1" gradientUnits="userSpaceOnUse" gradientTransform="translate(22 22) rotate(-135.659) scale(30.7612 116.292)">
<stop stop-color="#3E71FA"/>
<stop offset="0.38" stop-color="#409DB1"/>
<stop offset="1" stop-color="#42B883"/>
</radialGradient>
</defs>
</svg>
