<svg width="368" height="368" viewBox="0 0 368 368" fill="none" xmlns="http://www.w3.org/2000/svg">
<mask id="mask0_102_543" style="mask-type:alpha" maskUnits="userSpaceOnUse" x="0" y="0" width="368" height="368">
<circle cx="184" cy="184" r="184" fill="#C4C4C4"/>
</mask>
<g mask="url(#mask0_102_543)">
<g opacity="0.7">
<path d="M-245.919 358.498C-115.564 358.498 -115.564 410.357 14.79 410.357C145.144 410.357 145.144 358.498 275.499 358.498C405.853 358.498 405.853 410.357 536.208 410.357C666.562 410.357 666.562 358.498 796.917 358.498C927.271 358.498 927.271 410.357 1057.63 410.357" stroke="url(#paint0_linear_102_543)" stroke-width="1.2" stroke-miterlimit="10"/>
<path d="M-245.919 346.712C-115.564 346.712 -115.564 398.571 14.79 398.571C145.144 398.571 145.144 346.712 275.499 346.712C405.853 346.712 405.853 398.571 536.208 398.571C666.562 398.571 666.562 346.712 796.917 346.712C927.271 346.712 927.271 398.571 1057.63 398.571" stroke="url(#paint1_linear_102_543)" stroke-width="1.2" stroke-miterlimit="10"/>
<path d="M-245.919 334.926C-115.564 334.926 -115.564 386.785 14.79 386.785C145.144 386.785 145.144 334.926 275.499 334.926C405.853 334.926 405.853 386.785 536.208 386.785C666.562 386.785 666.562 334.926 796.917 334.926C927.271 334.926 927.271 386.785 1057.63 386.785" stroke="url(#paint2_linear_102_543)" stroke-width="1.2" stroke-miterlimit="10"/>
<path d="M-245.919 323.139C-115.564 323.139 -115.564 374.998 14.79 374.998C145.144 374.998 145.144 323.139 275.499 323.139C405.853 323.139 405.853 374.998 536.208 374.998C666.562 374.998 666.562 323.139 796.917 323.139C927.271 323.139 927.271 374.998 1057.63 374.998" stroke="url(#paint3_linear_102_543)" stroke-width="1.2" stroke-miterlimit="10"/>
<path d="M-245.919 311.354C-115.564 311.354 -115.564 363.213 14.79 363.213C145.144 363.213 145.144 311.354 275.499 311.354C405.853 311.354 405.853 363.213 536.208 363.213C666.562 363.213 666.562 311.354 796.917 311.354C927.271 311.354 927.271 363.213 1057.63 363.213" stroke="url(#paint4_linear_102_543)" stroke-width="1.2" stroke-miterlimit="10"/>
<path d="M-245.919 299.567C-115.564 299.567 -115.564 351.426 14.79 351.426C145.144 351.426 145.144 299.567 275.499 299.567C405.853 299.567 405.853 351.426 536.208 351.426C666.562 351.426 666.562 299.567 796.917 299.567C927.271 299.567 927.271 351.426 1057.63 351.426" stroke="url(#paint5_linear_102_543)" stroke-width="1.2" stroke-miterlimit="10"/>
<path d="M-245.919 287.781C-115.564 287.781 -115.564 339.64 14.79 339.64C145.144 339.64 145.144 287.781 275.499 287.781C405.853 287.781 405.853 339.64 536.208 339.64C666.562 339.64 666.562 287.781 796.917 287.781C927.271 287.781 927.271 339.64 1057.63 339.64" stroke="url(#paint6_linear_102_543)" stroke-width="1.2" stroke-miterlimit="10"/>
<path d="M-245.919 275.996C-115.564 275.996 -115.564 327.855 14.79 327.855C145.144 327.855 145.144 275.996 275.499 275.996C405.853 275.996 405.853 327.855 536.208 327.855C666.562 327.855 666.562 275.996 796.917 275.996C927.271 275.996 927.271 327.855 1057.63 327.855" stroke="url(#paint7_linear_102_543)" stroke-width="1.2" stroke-miterlimit="10"/>
<path d="M-245.919 264.209C-115.564 264.209 -115.564 316.068 14.79 316.068C145.144 316.068 145.144 264.209 275.499 264.209C405.853 264.209 405.853 316.068 536.208 316.068C666.562 316.068 666.562 264.209 796.917 264.209C927.271 264.209 927.271 316.068 1057.63 316.068" stroke="url(#paint8_linear_102_543)" stroke-width="1.2" stroke-miterlimit="10"/>
<path d="M-245.919 252.423C-115.564 252.423 -115.564 304.282 14.79 304.282C145.144 304.282 145.144 252.423 275.499 252.423C405.853 252.423 405.853 304.282 536.208 304.282C666.562 304.282 666.562 252.423 796.917 252.423C927.271 252.423 927.271 304.282 1057.63 304.282" stroke="url(#paint9_linear_102_543)" stroke-width="1.2" stroke-miterlimit="10"/>
<path d="M-245.919 240.637C-115.564 240.637 -115.564 292.496 14.79 292.496C145.144 292.496 145.144 240.637 275.499 240.637C405.853 240.637 405.853 292.496 536.208 292.496C666.562 292.496 666.562 240.637 796.917 240.637C927.271 240.637 927.271 292.496 1057.63 292.496" stroke="url(#paint10_linear_102_543)" stroke-width="1.2" stroke-miterlimit="10"/>
<path d="M-245.919 228.851C-115.564 228.851 -115.564 280.71 14.79 280.71C145.144 280.71 145.144 228.851 275.499 228.851C405.853 228.851 405.853 280.71 536.208 280.71C666.562 280.71 666.562 228.851 796.917 228.851C927.271 228.851 927.271 280.71 1057.63 280.71" stroke="url(#paint11_linear_102_543)" stroke-width="1.2" stroke-miterlimit="10"/>
<path d="M-245.919 217.065C-115.564 217.065 -115.564 268.924 14.79 268.924C145.144 268.924 145.144 217.065 275.499 217.065C405.853 217.065 405.853 268.924 536.208 268.924C666.562 268.924 666.562 217.065 796.917 217.065C927.271 217.065 927.271 268.924 1057.63 268.924" stroke="url(#paint12_linear_102_543)" stroke-width="1.2" stroke-miterlimit="10"/>
<path d="M-245.919 205.28C-115.564 205.28 -115.564 257.138 14.79 257.138C145.144 257.138 145.144 205.28 275.499 205.28C405.853 205.28 405.853 257.138 536.208 257.138C666.562 257.138 666.562 205.28 796.917 205.28C927.271 205.28 927.271 257.138 1057.63 257.138" stroke="url(#paint13_linear_102_543)" stroke-width="1.2" stroke-miterlimit="10"/>
<path d="M-245.919 193.493C-115.564 193.493 -115.564 245.352 14.79 245.352C145.144 245.352 145.144 193.493 275.499 193.493C405.853 193.493 405.853 245.352 536.208 245.352C666.562 245.352 666.562 193.493 796.917 193.493C927.271 193.493 927.271 245.352 1057.63 245.352" stroke="url(#paint14_linear_102_543)" stroke-width="1.2" stroke-miterlimit="10"/>
<path d="M-245.919 181.706C-115.564 181.706 -115.564 233.565 14.79 233.565C145.144 233.565 145.144 181.706 275.499 181.706C405.853 181.706 405.853 233.565 536.208 233.565C666.562 233.565 666.562 181.706 796.917 181.706C927.271 181.706 927.271 233.565 1057.63 233.565" stroke="url(#paint15_linear_102_543)" stroke-width="1.2" stroke-miterlimit="10"/>
<path d="M-245.919 169.92C-115.564 169.92 -115.564 221.779 14.79 221.779C145.144 221.779 145.144 169.92 275.499 169.92C405.853 169.92 405.853 221.779 536.208 221.779C666.562 221.779 666.562 169.92 796.917 169.92C927.271 169.92 927.271 221.779 1057.63 221.779" stroke="url(#paint16_linear_102_543)" stroke-width="1.2" stroke-miterlimit="10"/>
<path d="M-245.919 158.134C-115.564 158.134 -115.564 209.993 14.79 209.993C145.144 209.993 145.144 158.134 275.499 158.134C405.853 158.134 405.853 209.993 536.208 209.993C666.562 209.993 666.562 158.134 796.917 158.134C927.271 158.134 927.271 209.993 1057.63 209.993" stroke="url(#paint17_linear_102_543)" stroke-width="1.2" stroke-miterlimit="10"/>
<path d="M-245.919 146.348C-115.564 146.348 -115.564 198.207 14.79 198.207C145.144 198.207 145.144 146.348 275.499 146.348C405.853 146.348 405.853 198.207 536.208 198.207C666.562 198.207 666.562 146.348 796.917 146.348C927.271 146.348 927.271 198.207 1057.63 198.207" stroke="url(#paint18_linear_102_543)" stroke-width="1.2" stroke-miterlimit="10"/>
<path d="M-245.919 134.562C-115.564 134.562 -115.564 186.421 14.79 186.421C145.144 186.421 145.144 134.562 275.499 134.562C405.853 134.562 405.853 186.421 536.208 186.421C666.562 186.421 666.562 134.562 796.917 134.562C927.271 134.562 927.271 186.421 1057.63 186.421" stroke="url(#paint19_linear_102_543)" stroke-width="1.2" stroke-miterlimit="10"/>
<path d="M-245.919 122.776C-115.564 122.776 -115.564 174.635 14.79 174.635C145.144 174.635 145.144 122.776 275.499 122.776C405.853 122.776 405.853 174.635 536.208 174.635C666.562 174.635 666.562 122.776 796.917 122.776C927.271 122.776 927.271 174.635 1057.63 174.635" stroke="url(#paint20_linear_102_543)" stroke-width="1.2" stroke-miterlimit="10"/>
<path d="M-245.919 110.99C-115.564 110.99 -115.564 162.849 14.79 162.849C145.144 162.849 145.144 110.99 275.499 110.99C405.853 110.99 405.853 162.849 536.208 162.849C666.562 162.849 666.562 110.99 796.917 110.99C927.271 110.99 927.271 162.849 1057.63 162.849" stroke="url(#paint21_linear_102_543)" stroke-width="1.2" stroke-miterlimit="10"/>
<path d="M-245.919 99.2031C-115.564 99.2031 -115.564 151.062 14.79 151.062C145.144 151.062 145.144 99.2031 275.499 99.2031C405.853 99.2031 405.853 151.062 536.208 151.062C666.562 151.062 666.562 99.2031 796.917 99.2031C927.271 99.2031 927.271 151.062 1057.63 151.062" stroke="url(#paint22_linear_102_543)" stroke-width="1.2" stroke-miterlimit="10"/>
<path d="M-245.919 87.418C-115.564 87.418 -115.564 139.277 14.79 139.277C145.144 139.277 145.144 87.418 275.499 87.418C405.853 87.418 405.853 139.277 536.208 139.277C666.562 139.277 666.562 87.418 796.917 87.418C927.271 87.418 927.271 139.277 1057.63 139.277" stroke="url(#paint23_linear_102_543)" stroke-width="1.2" stroke-miterlimit="10"/>
<path d="M-245.919 75.6311C-115.564 75.6311 -115.564 127.49 14.79 127.49C145.144 127.49 145.144 75.6311 275.499 75.6311C405.853 75.6311 405.853 127.49 536.208 127.49C666.562 127.49 666.562 75.6311 796.917 75.6311C927.271 75.6311 927.271 127.49 1057.63 127.49" stroke="url(#paint24_linear_102_543)" stroke-width="1.2" stroke-miterlimit="10"/>
<path d="M-245.919 63.8442C-115.564 63.8442 -115.564 115.703 14.79 115.703C145.144 115.703 145.144 63.8442 275.499 63.8442C405.853 63.8442 405.853 115.703 536.208 115.703C666.562 115.703 666.562 63.8442 796.917 63.8442C927.271 63.8442 927.271 115.703 1057.63 115.703" stroke="url(#paint25_linear_102_543)" stroke-width="1.2" stroke-miterlimit="10"/>
<path d="M-245.919 52.0591C-115.564 52.0591 -115.564 103.918 14.79 103.918C145.144 103.918 145.144 52.0591 275.499 52.0591C405.853 52.0591 405.853 103.918 536.208 103.918C666.562 103.918 666.562 52.0591 796.917 52.0591C927.271 52.0591 927.271 103.918 1057.63 103.918" stroke="url(#paint26_linear_102_543)" stroke-width="1.2" stroke-miterlimit="10"/>
<path d="M-245.919 40.2729C-115.564 40.2729 -115.564 92.1319 14.79 92.1319C145.144 92.1319 145.144 40.2729 275.499 40.2729C405.853 40.2729 405.853 92.1319 536.208 92.1319C666.562 92.1319 666.562 40.2729 796.917 40.2729C927.271 40.2729 927.271 92.1319 1057.63 92.1319" stroke="url(#paint27_linear_102_543)" stroke-width="1.2" stroke-miterlimit="10"/>
<path d="M-245.919 28.4868C-115.564 28.4868 -115.564 80.3457 14.79 80.3457C145.144 80.3457 145.144 28.4868 275.499 28.4868C405.853 28.4868 405.853 80.3457 536.208 80.3457C666.562 80.3457 666.562 28.4868 796.917 28.4868C927.271 28.4868 927.271 80.3457 1057.63 80.3457" stroke="url(#paint28_linear_102_543)" stroke-width="1.2" stroke-miterlimit="10"/>
<path d="M-245.919 16.6997C-115.564 16.6997 -115.564 68.5586 14.79 68.5586C145.144 68.5586 145.144 16.6997 275.499 16.6997C405.853 16.6997 405.853 68.5586 536.208 68.5586C666.562 68.5586 666.562 16.6997 796.917 16.6997C927.271 16.6997 927.271 68.5586 1057.63 68.5586" stroke="url(#paint29_linear_102_543)" stroke-width="1.2" stroke-miterlimit="10"/>
<path d="M-245.919 4.91479C-115.564 4.91479 -115.564 56.7737 14.79 56.7737C145.144 56.7737 145.144 4.91479 275.499 4.91479C405.853 4.91479 405.853 56.7737 536.208 56.7737C666.562 56.7737 666.562 4.91479 796.917 4.91479C927.271 4.91479 927.271 56.7737 1057.63 56.7737" stroke="url(#paint30_linear_102_543)" stroke-width="1.2" stroke-miterlimit="10"/>
<path d="M-245.919 -6.87158C-115.564 -6.87158 -115.564 44.9873 14.79 44.9873C145.144 44.9873 145.144 -6.87158 275.499 -6.87158C405.853 -6.87158 405.853 44.9873 536.208 44.9873C666.562 44.9873 666.562 -6.87158 796.917 -6.87158C927.271 -6.87158 927.271 44.9873 1057.63 44.9873" stroke="url(#paint31_linear_102_543)" stroke-width="1.2" stroke-miterlimit="10"/>
<path d="M-245.919 -18.6584C-115.564 -18.6584 -115.564 33.2005 14.79 33.2005C145.144 33.2005 145.144 -18.6584 275.499 -18.6584C405.853 -18.6584 405.853 33.2005 536.208 33.2005C666.562 33.2005 666.562 -18.6584 796.917 -18.6584C927.271 -18.6584 927.271 33.2005 1057.63 33.2005" stroke="url(#paint32_linear_102_543)" stroke-width="1.2" stroke-miterlimit="10"/>
<path d="M-245.919 -30.4438C-115.564 -30.4438 -115.564 21.4151 14.7901 21.4151C145.145 21.4151 145.145 -30.4438 275.499 -30.4438C405.853 -30.4438 405.853 21.4151 536.208 21.4151C666.562 21.4151 666.562 -30.4438 796.917 -30.4438C927.271 -30.4438 927.271 21.4151 1057.63 21.4151" stroke="url(#paint33_linear_102_543)" stroke-width="1.2" stroke-miterlimit="10"/>
<path d="M-245.919 -42.23C-115.564 -42.23 -115.564 9.62894 14.7901 9.62894C145.145 9.62894 145.145 -42.23 275.499 -42.23C405.853 -42.23 405.853 9.62894 536.208 9.62894C666.562 9.62894 666.562 -42.23 796.917 -42.23C927.271 -42.23 927.271 9.62894 1057.63 9.62894" stroke="url(#paint34_linear_102_543)" stroke-width="1.2" stroke-miterlimit="10"/>
</g>
</g>
<defs>
<linearGradient id="paint0_linear_102_543" x1="405.853" y1="358.498" x2="405.853" y2="410.357" gradientUnits="userSpaceOnUse">
<stop stop-color="#2E76B5"/>
<stop offset="0.0001" stop-color="#2F78B4"/>
<stop offset="1" stop-color="#61D690"/>
</linearGradient>
<linearGradient id="paint1_linear_102_543" x1="405.853" y1="346.712" x2="405.853" y2="398.571" gradientUnits="userSpaceOnUse">
<stop stop-color="#2E76B5"/>
<stop offset="0.0001" stop-color="#2F78B4"/>
<stop offset="1" stop-color="#61D690"/>
</linearGradient>
<linearGradient id="paint2_linear_102_543" x1="405.853" y1="334.926" x2="405.853" y2="386.785" gradientUnits="userSpaceOnUse">
<stop stop-color="#2E76B5"/>
<stop offset="0.0001" stop-color="#2F78B4"/>
<stop offset="1" stop-color="#61D690"/>
</linearGradient>
<linearGradient id="paint3_linear_102_543" x1="405.853" y1="323.139" x2="405.853" y2="374.998" gradientUnits="userSpaceOnUse">
<stop stop-color="#2E76B5"/>
<stop offset="0.0001" stop-color="#2F78B4"/>
<stop offset="1" stop-color="#61D690"/>
</linearGradient>
<linearGradient id="paint4_linear_102_543" x1="405.853" y1="311.354" x2="405.853" y2="363.213" gradientUnits="userSpaceOnUse">
<stop stop-color="#2E76B5"/>
<stop offset="0.0001" stop-color="#2F78B4"/>
<stop offset="1" stop-color="#61D690"/>
</linearGradient>
<linearGradient id="paint5_linear_102_543" x1="405.853" y1="299.567" x2="405.853" y2="351.426" gradientUnits="userSpaceOnUse">
<stop stop-color="#2E76B5"/>
<stop offset="0.0001" stop-color="#2F78B4"/>
<stop offset="1" stop-color="#61D690"/>
</linearGradient>
<linearGradient id="paint6_linear_102_543" x1="405.853" y1="287.781" x2="405.853" y2="339.64" gradientUnits="userSpaceOnUse">
<stop stop-color="#2E76B5"/>
<stop offset="0.0001" stop-color="#2F78B4"/>
<stop offset="1" stop-color="#61D690"/>
</linearGradient>
<linearGradient id="paint7_linear_102_543" x1="405.853" y1="275.996" x2="405.853" y2="327.855" gradientUnits="userSpaceOnUse">
<stop stop-color="#2E76B5"/>
<stop offset="0.0001" stop-color="#2F78B4"/>
<stop offset="1" stop-color="#61D690"/>
</linearGradient>
<linearGradient id="paint8_linear_102_543" x1="405.853" y1="264.209" x2="405.853" y2="316.068" gradientUnits="userSpaceOnUse">
<stop stop-color="#2E76B5"/>
<stop offset="0.0001" stop-color="#2F78B4"/>
<stop offset="1" stop-color="#61D690"/>
</linearGradient>
<linearGradient id="paint9_linear_102_543" x1="405.853" y1="252.423" x2="405.853" y2="304.282" gradientUnits="userSpaceOnUse">
<stop stop-color="#2E76B5"/>
<stop offset="0.0001" stop-color="#2F78B4"/>
<stop offset="1" stop-color="#61D690"/>
</linearGradient>
<linearGradient id="paint10_linear_102_543" x1="405.853" y1="240.637" x2="405.853" y2="292.496" gradientUnits="userSpaceOnUse">
<stop stop-color="#2E76B5"/>
<stop offset="0.0001" stop-color="#2F78B4"/>
<stop offset="1" stop-color="#61D690"/>
</linearGradient>
<linearGradient id="paint11_linear_102_543" x1="405.853" y1="228.851" x2="405.853" y2="280.71" gradientUnits="userSpaceOnUse">
<stop stop-color="#2E76B5"/>
<stop offset="0.0001" stop-color="#2F78B4"/>
<stop offset="1" stop-color="#61D690"/>
</linearGradient>
<linearGradient id="paint12_linear_102_543" x1="405.853" y1="217.065" x2="405.853" y2="268.924" gradientUnits="userSpaceOnUse">
<stop stop-color="#2E76B5"/>
<stop offset="0.0001" stop-color="#2F78B4"/>
<stop offset="1" stop-color="#61D690"/>
</linearGradient>
<linearGradient id="paint13_linear_102_543" x1="405.853" y1="205.28" x2="405.853" y2="257.138" gradientUnits="userSpaceOnUse">
<stop stop-color="#2E76B5"/>
<stop offset="0.0001" stop-color="#2F78B4"/>
<stop offset="1" stop-color="#61D690"/>
</linearGradient>
<linearGradient id="paint14_linear_102_543" x1="405.853" y1="193.493" x2="405.853" y2="245.352" gradientUnits="userSpaceOnUse">
<stop stop-color="#2E76B5"/>
<stop offset="0.0001" stop-color="#2F78B4"/>
<stop offset="1" stop-color="#61D690"/>
</linearGradient>
<linearGradient id="paint15_linear_102_543" x1="405.853" y1="181.706" x2="405.853" y2="233.565" gradientUnits="userSpaceOnUse">
<stop stop-color="#2E76B5"/>
<stop offset="0.0001" stop-color="#2F78B4"/>
<stop offset="1" stop-color="#61D690"/>
</linearGradient>
<linearGradient id="paint16_linear_102_543" x1="405.853" y1="169.92" x2="405.853" y2="221.779" gradientUnits="userSpaceOnUse">
<stop stop-color="#2E76B5"/>
<stop offset="0.0001" stop-color="#2F78B4"/>
<stop offset="1" stop-color="#61D690"/>
</linearGradient>
<linearGradient id="paint17_linear_102_543" x1="405.853" y1="158.134" x2="405.853" y2="209.993" gradientUnits="userSpaceOnUse">
<stop stop-color="#2E76B5"/>
<stop offset="0.0001" stop-color="#2F78B4"/>
<stop offset="1" stop-color="#61D690"/>
</linearGradient>
<linearGradient id="paint18_linear_102_543" x1="405.853" y1="146.348" x2="405.853" y2="198.207" gradientUnits="userSpaceOnUse">
<stop stop-color="#2E76B5"/>
<stop offset="0.0001" stop-color="#2F78B4"/>
<stop offset="1" stop-color="#61D690"/>
</linearGradient>
<linearGradient id="paint19_linear_102_543" x1="405.853" y1="134.562" x2="405.853" y2="186.421" gradientUnits="userSpaceOnUse">
<stop stop-color="#2E76B5"/>
<stop offset="0.0001" stop-color="#2F78B4"/>
<stop offset="1" stop-color="#61D690"/>
</linearGradient>
<linearGradient id="paint20_linear_102_543" x1="405.853" y1="122.776" x2="405.853" y2="174.635" gradientUnits="userSpaceOnUse">
<stop stop-color="#2E76B5"/>
<stop offset="0.0001" stop-color="#2F78B4"/>
<stop offset="1" stop-color="#61D690"/>
</linearGradient>
<linearGradient id="paint21_linear_102_543" x1="405.853" y1="110.99" x2="405.853" y2="162.849" gradientUnits="userSpaceOnUse">
<stop stop-color="#2E76B5"/>
<stop offset="0.0001" stop-color="#2F78B4"/>
<stop offset="1" stop-color="#61D690"/>
</linearGradient>
<linearGradient id="paint22_linear_102_543" x1="405.853" y1="99.2031" x2="405.853" y2="151.062" gradientUnits="userSpaceOnUse">
<stop stop-color="#2E76B5"/>
<stop offset="0.0001" stop-color="#2F78B4"/>
<stop offset="1" stop-color="#61D690"/>
</linearGradient>
<linearGradient id="paint23_linear_102_543" x1="405.853" y1="87.418" x2="405.853" y2="139.277" gradientUnits="userSpaceOnUse">
<stop stop-color="#2E76B5"/>
<stop offset="0.0001" stop-color="#2F78B4"/>
<stop offset="1" stop-color="#61D690"/>
</linearGradient>
<linearGradient id="paint24_linear_102_543" x1="405.853" y1="75.6311" x2="405.853" y2="127.49" gradientUnits="userSpaceOnUse">
<stop stop-color="#2E76B5"/>
<stop offset="0.0001" stop-color="#2F78B4"/>
<stop offset="1" stop-color="#61D690"/>
</linearGradient>
<linearGradient id="paint25_linear_102_543" x1="405.853" y1="63.8442" x2="405.853" y2="115.703" gradientUnits="userSpaceOnUse">
<stop stop-color="#2E76B5"/>
<stop offset="0.0001" stop-color="#2F78B4"/>
<stop offset="1" stop-color="#61D690"/>
</linearGradient>
<linearGradient id="paint26_linear_102_543" x1="405.853" y1="52.0591" x2="405.853" y2="103.918" gradientUnits="userSpaceOnUse">
<stop stop-color="#2E76B5"/>
<stop offset="0.0001" stop-color="#2F78B4"/>
<stop offset="1" stop-color="#61D690"/>
</linearGradient>
<linearGradient id="paint27_linear_102_543" x1="405.853" y1="40.2729" x2="405.853" y2="92.1319" gradientUnits="userSpaceOnUse">
<stop stop-color="#2E76B5"/>
<stop offset="0.0001" stop-color="#2F78B4"/>
<stop offset="1" stop-color="#61D690"/>
</linearGradient>
<linearGradient id="paint28_linear_102_543" x1="405.853" y1="28.4868" x2="405.853" y2="80.3457" gradientUnits="userSpaceOnUse">
<stop stop-color="#2E76B5"/>
<stop offset="0.0001" stop-color="#2F78B4"/>
<stop offset="1" stop-color="#61D690"/>
</linearGradient>
<linearGradient id="paint29_linear_102_543" x1="405.853" y1="16.6997" x2="405.853" y2="68.5586" gradientUnits="userSpaceOnUse">
<stop stop-color="#2E76B5"/>
<stop offset="0.0001" stop-color="#2F78B4"/>
<stop offset="1" stop-color="#61D690"/>
</linearGradient>
<linearGradient id="paint30_linear_102_543" x1="405.853" y1="4.91479" x2="405.853" y2="56.7737" gradientUnits="userSpaceOnUse">
<stop stop-color="#2E76B5"/>
<stop offset="0.0001" stop-color="#2F78B4"/>
<stop offset="1" stop-color="#61D690"/>
</linearGradient>
<linearGradient id="paint31_linear_102_543" x1="405.853" y1="-6.87158" x2="405.853" y2="44.9873" gradientUnits="userSpaceOnUse">
<stop stop-color="#2E76B5"/>
<stop offset="0.0001" stop-color="#2F78B4"/>
<stop offset="1" stop-color="#61D690"/>
</linearGradient>
<linearGradient id="paint32_linear_102_543" x1="405.853" y1="-18.6584" x2="405.853" y2="33.2005" gradientUnits="userSpaceOnUse">
<stop stop-color="#2E76B5"/>
<stop offset="0.0001" stop-color="#2F78B4"/>
<stop offset="1" stop-color="#61D690"/>
</linearGradient>
<linearGradient id="paint33_linear_102_543" x1="405.853" y1="-30.4438" x2="405.853" y2="21.4151" gradientUnits="userSpaceOnUse">
<stop stop-color="#2E76B5"/>
<stop offset="0.0001" stop-color="#2F78B4"/>
<stop offset="1" stop-color="#61D690"/>
</linearGradient>
<linearGradient id="paint34_linear_102_543" x1="405.853" y1="-42.23" x2="405.853" y2="9.62894" gradientUnits="userSpaceOnUse">
<stop stop-color="#2E76B5"/>
<stop offset="0.0001" stop-color="#2F78B4"/>
<stop offset="1" stop-color="#61D690"/>
</linearGradient>
</defs>
</svg>
