<svg width="32" height="32" viewBox="0 0 32 32" fill="none" xmlns="http://www.w3.org/2000/svg">
<path fill-rule="evenodd" clip-rule="evenodd" d="M2.90909 29.0909L29.0909 29.0909L29.0909 2.90909L2.90909 2.90909L2.90909 29.0909ZM32 32L32 1.90735e-06L4.70488e-06 -8.9018e-07L1.90735e-06 32L32 32Z" fill="url(#paint0_linear_523_76)"/>
<path fill-rule="evenodd" clip-rule="evenodd" d="M8.72734 23.2727L26.1819 23.2727L26.1819 26.1818L5.81825 26.1818L5.81825 5.81813L26.1819 5.81813L26.1819 20.3636L11.6364 20.3636L11.6364 11.6363L20.3637 11.6363L20.3637 14.5454L14.5455 14.5454L14.5455 17.4545L23.2728 17.4545L23.2728 8.72722L8.72734 8.72722L8.72734 23.2727Z" fill="url(#paint1_linear_523_76)"/>
<defs>
<linearGradient id="paint0_linear_523_76" x1="-12.4746" y1="11.7333" x2="43.1181" y2="11.5653" gradientUnits="userSpaceOnUse">
<stop stop-color="#3E71FA"/>
<stop offset="1" stop-color="#42B883"/>
</linearGradient>
<linearGradient id="paint1_linear_523_76" x1="-2.12011" y1="13.2848" x2="33.2571" y2="13.1778" gradientUnits="userSpaceOnUse">
<stop stop-color="#3E71FA"/>
<stop offset="1" stop-color="#42B883"/>
</linearGradient>
</defs>
</svg>
