<svg width="40" height="20" viewBox="0 0 40 20" fill="none" xmlns="http://www.w3.org/2000/svg">
<path d="M1.17647 1.14286L1.17647 18.8571H14.7059L14.7059 5.71429L6.47059 5.71429L6.47059 13.7143L10 13.7143L10 9.14286H11.1765L11.1765 14.8571H5.29412V4.57143H15.8824L15.8824 20H0V0H20.5882V18.8571L38.8235 18.8571V1.14286L25.2941 1.14286L25.2941 14.2857H33.5294V6.28572L30 6.28571V10.8571H28.8235V5.14286H34.7059V15.4286H24.1177L24.1176 1.34881e-06L40 0V20L19.4118 20V1.14286H1.17647Z" fill="url(#paint0_linear_522_331)"/>
<defs>
<linearGradient id="paint0_linear_522_331" x1="55.5932" y1="12.6667" x2="-13.8958" y2="13.0868" gradientUnits="userSpaceOnUse">
<stop stop-color="#3E71FA"/>
<stop offset="1" stop-color="#42B883"/>
</linearGradient>
</defs>
</svg>
