<svg width="44" height="44" viewBox="0 0 44 44" fill="none" xmlns="http://www.w3.org/2000/svg">
<path fill-rule="evenodd" clip-rule="evenodd" d="M4 40L40 40L40 4L4.00001 4L4 40ZM44 44L44 2.6226e-06L6.46921e-06 -1.224e-06L2.6226e-06 44L44 44Z" fill="url(#paint0_linear_524_4)"/>
<path fill-rule="evenodd" clip-rule="evenodd" d="M12 32L36 32L36 36L8 36L8 8L36 8L36 28L16 28L16 16L28 16L28 20L20 20L20 24L32 24L32 12L12 12L12 32Z" fill="url(#paint1_linear_524_4)"/>
<defs>
<linearGradient id="paint0_linear_524_4" x1="-17.1525" y1="16.1333" x2="59.2874" y2="15.9022" gradientUnits="userSpaceOnUse">
<stop stop-color="#3E71FA"/>
<stop offset="1" stop-color="#42B883"/>
</linearGradient>
<linearGradient id="paint1_linear_524_4" x1="-2.91525" y1="18.2667" x2="45.7284" y2="18.1196" gradientUnits="userSpaceOnUse">
<stop stop-color="#3E71FA"/>
<stop offset="1" stop-color="#42B883"/>
</linearGradient>
</defs>
</svg>
