<svg width="299" height="52" viewBox="0 0 299 52" fill="none" xmlns="http://www.w3.org/2000/svg">
<path d="M23.0219 35.7951C23.3813 35.4518 23.6059 35.4089 24.0102 35.7522C25.942 37.5974 27.8737 39.4856 29.8054 41.288C30.2098 41.6313 30.2098 41.8888 29.8054 42.2321C27.8737 44.0344 25.942 45.8797 24.0551 47.725C23.6508 48.1111 23.4262 48.1541 23.0219 47.7679C21.0901 45.9226 19.1584 44.0773 17.2266 42.2321C16.8672 41.8888 16.8672 41.6742 17.2266 41.3309C17.4962 41.1163 17.7208 40.8588 17.9454 40.6443L23.0219 35.7951Z" fill="white"/>
<path d="M7.7922 11.6357C3.12006 18.1156 3.16499 26.5266 7.97189 32.9636C8.51098 33.6931 9.18485 34.3797 9.81379 35.0663C12.06 32.9206 14.2164 30.8608 16.4176 28.758C12.6889 25.1105 12.6889 19.2313 16.5076 15.6266C20.3261 11.979 26.5257 11.979 30.3442 15.6266C33.9831 19.1026 34.1628 24.5955 30.8833 28.2431C30.8384 28.4148 30.7935 28.5864 30.6586 28.7151C32.9049 30.8608 35.0613 32.9206 37.2626 35.0234C37.4871 34.8088 37.7118 34.5943 37.8915 34.4226C41.9796 30.5175 46.0228 26.6124 50.1558 22.7502C50.65 22.2781 50.605 22.0206 50.1558 21.5487C45.8431 17.5148 41.6202 13.438 37.3524 9.40416C36.6336 8.71755 35.8249 8.07385 34.9714 7.47307C26.4357 1.33647 13.9019 3.26757 7.7922 11.6357Z" fill="#2E76B5"/>
<path d="M68.5735 26.0124V25.9571C68.5735 17.7814 75.0505 11.0972 84.3034 11.0972C89.9707 11.0972 93.3828 12.9201 96.1585 15.5165L91.937 20.1568C89.6238 18.1681 87.2527 16.8975 84.2456 16.8975C79.1565 16.8975 75.5131 20.9302 75.5131 25.8467V25.9019C75.5131 30.8184 79.0986 34.9615 84.2456 34.9615C87.7153 34.9615 89.7972 33.6357 92.1682 31.5918L96.3899 35.6796C93.267 38.8284 89.8551 40.8172 84.0142 40.8172C75.1662 40.7619 68.5735 34.2434 68.5735 26.0124Z" fill="white"/>
<path d="M105.177 11.5391H127.905V17.1737H111.77V23.0293H125.996V28.664H111.77V34.6853H128.078V40.3199H105.119V11.5391H105.177Z" fill="white"/>
<path d="M137.39 11.5391H151.212C155.028 11.5391 158.036 12.5887 160.002 14.4669C161.679 16.0689 162.604 18.3338 162.604 21.0406V21.0959C162.604 25.7362 160.002 28.664 156.127 29.9898L163.472 40.2647H155.722L149.245 31.0394H144.041V40.2647H137.39V11.5391ZM150.749 25.5152C153.987 25.5152 155.838 23.8579 155.838 21.4273V21.3721C155.838 18.6652 153.872 17.2842 150.633 17.2842H144.041V25.5704H150.749V25.5152Z" fill="white"/>
<path d="M178.968 17.3394H169.831V11.5391H194.814V17.3394H185.677V40.2647H178.968V17.3394Z" fill="white"/>
<path d="M203.601 11.5391H210.193V40.3199H203.543V11.5391H203.601Z" fill="white"/>
<path d="M221.183 11.5391H244.141V17.2842H227.833V23.416H242.175V29.1611H227.833V40.3199H221.183V11.5391Z" fill="white"/>
<path d="M253.163 11.5391H259.814V40.3199H253.163V11.5391Z" fill="#2E76B5"/>
<path d="M270.745 11.5391H282.485C291.969 11.5391 298.504 17.7261 298.504 25.8466V25.9019C298.504 34.0224 291.969 40.2647 282.485 40.2647H270.745V11.5391ZM277.395 17.2289V34.5748H282.542C287.978 34.5748 291.622 31.0946 291.622 26.0123V25.9571C291.622 20.8749 287.978 17.2842 282.542 17.2842H277.395V17.2289Z" fill="#2E76B5"/>
</svg>
