<?xml version="1.0" encoding="utf-8"?>
<!-- Generator: Adobe Illustrator 16.0.0, SVG Export Plug-In . SVG Version: 6.00 Build 0)  -->
<!DOCTYPE svg PUBLIC "-//W3C//DTD SVG 1.1//EN" "http://www.w3.org/Graphics/SVG/1.1/DTD/svg11.dtd">
<svg version="1.1" id="Layer_1" xmlns="http://www.w3.org/2000/svg" xmlns:xlink="http://www.w3.org/1999/xlink" x="0px" y="0px"
	 width="215.643px" height="40.121px" viewBox="0 0 215.643 40.121" enable-background="new 0 0 215.643 40.121"
	 xml:space="preserve">
<g>
	<g>
		<polygon fill="#FFFFFF" points="21.515,0 43.03,12.423 43.03,36.424 34.745,31.643 34.745,18.772 37.441,18.772 21.515,9.587 
			5.599,18.772 8.285,18.772 8.285,31.643 0,36.424 0,12.423 		"/>
		<polygon fill="#96C9DE" points="43.025,40.121 21.515,28.006 0.004,40.121 		"/>
	</g>
	<g>
		<g>
			<rect x="54.145" y="12.792" fill="#FFFFFF" width="3.271" height="27.013"/>
			<path fill="#FFFFFF" d="M81.699,30.996c0,0.953,0.016,1.943,0.045,2.965L69.16,15.112h-2.761v24.693h3.045V24.013
				c0-0.792-0.026-1.836-0.077-3.116L81.98,39.805h2.777V15.112h-3.061L81.699,30.996L81.699,30.996z"/>
			<polygon fill="#FFFFFF" points="110.109,24.121 96.688,24.121 96.688,12.792 93.419,12.792 93.419,39.805 96.688,39.805 
				96.688,27.252 110.109,27.252 110.109,39.805 113.396,39.805 113.396,12.792 110.109,12.792 			"/>
			<path fill="#FFFFFF" d="M132.282,14.747c-3.425,0-6.173,1.155-8.172,3.434c-1.969,2.251-2.969,5.351-2.969,9.213
				c0,3.867,0.991,6.983,2.943,9.255c1.981,2.304,4.729,3.471,8.165,3.471c3.448,0,6.201-1.167,8.182-3.471
				c1.953-2.271,2.943-5.373,2.943-9.225c0-3.857-0.985-6.96-2.927-9.223C138.479,15.908,135.73,14.747,132.282,14.747z
				 M132.25,37.108c-2.559,0-4.456-0.802-5.804-2.448c-1.362-1.671-2.056-4.105-2.056-7.236c0-3.117,0.698-5.535,2.075-7.188
				c1.361-1.636,3.264-2.432,5.815-2.432c2.561,0,4.458,0.787,5.799,2.402c1.354,1.639,2.044,4.064,2.044,7.216
				c0,3.162-0.689,5.602-2.048,7.255C136.739,36.313,134.833,37.108,132.25,37.108z"/>
			<path fill="#FFFFFF" d="M165.909,31.027c0,1.984-0.524,3.478-1.606,4.561c-1.08,1.087-2.59,1.615-4.615,1.615
				c-2.077,0-3.624-0.54-4.729-1.646c-1.1-1.106-1.637-2.641-1.637-4.689V15.112h-3.124v15.694c0,2.891,0.835,5.189,2.48,6.836
				c1.647,1.645,3.94,2.479,6.819,2.479c2.95,0,5.296-0.828,6.979-2.465c1.688-1.641,2.542-3.924,2.542-6.787V15.112h-3.108V31.027
				L165.909,31.027z"/>
			<path fill="#FFFFFF" d="M188.43,27.742c-0.963-0.617-2.388-1.256-4.232-1.893c-1.664-0.591-2.847-1.1-3.508-1.508
				c-0.599-0.373-1.028-0.782-1.276-1.221c-0.247-0.432-0.372-1.02-0.372-1.743c0-1.133,0.405-2.001,1.238-2.651
				c0.876-0.685,2.102-1.031,3.637-1.031c1.647,0,3.409,0.387,5.235,1.147l0.685,0.285l1.163-2.76l-0.679-0.294
				c-2-0.86-4.168-1.297-6.436-1.297c-2.301,0-4.224,0.606-5.714,1.807c-1.536,1.237-2.314,2.861-2.314,4.824
				c0,1.768,0.526,3.213,1.563,4.299c1,1.045,2.704,1.971,5.209,2.832c1.572,0.539,2.77,1.037,3.555,1.483
				c0.727,0.415,1.248,0.862,1.551,1.331c0.291,0.454,0.438,1.053,0.438,1.783c0,1.186-0.454,2.119-1.389,2.852
				c-0.977,0.763-2.346,1.15-4.073,1.15c-2.479,0-4.533-0.338-6.105-1.005l-1.035-0.439v3.24l0.459,0.191
				c1.618,0.665,3.845,0.993,6.808,0.993c2.523,0,4.587-0.627,6.14-1.861c1.601-1.275,2.412-3.02,2.412-5.184
				c0-1.186-0.241-2.218-0.722-3.07C190.193,29.158,189.44,28.396,188.43,27.742z"/>
			<polygon fill="#FFFFFF" points="212.226,18.093 212.226,15.112 198.059,15.112 198.059,39.805 212.226,39.805 212.226,36.822 
				201.164,36.822 201.164,28.359 211.608,28.359 211.608,25.381 201.164,25.381 201.164,18.093 			"/>
		</g>
		<g>
			<g>
				<path fill="#FFFFFF" d="M213.887,9.276c0.295,0,0.582,0.076,0.864,0.228c0.281,0.15,0.5,0.368,0.657,0.649
					c0.156,0.282,0.234,0.576,0.234,0.882c0,0.303-0.077,0.594-0.231,0.874c-0.154,0.279-0.371,0.496-0.649,0.651
					c-0.279,0.154-0.57,0.231-0.875,0.231s-0.596-0.077-0.874-0.231c-0.279-0.155-0.497-0.372-0.653-0.651
					c-0.153-0.28-0.231-0.571-0.231-0.874c0-0.306,0.079-0.6,0.236-0.882c0.157-0.281,0.377-0.499,0.658-0.649
					C213.304,9.353,213.592,9.276,213.887,9.276z M213.887,9.567c-0.247,0-0.487,0.063-0.721,0.189
					c-0.234,0.127-0.417,0.309-0.549,0.543c-0.132,0.235-0.198,0.48-0.198,0.735c0,0.253,0.065,0.496,0.194,0.729
					c0.13,0.232,0.312,0.413,0.544,0.542c0.233,0.13,0.477,0.195,0.729,0.195s0.496-0.065,0.729-0.195
					c0.233-0.129,0.415-0.31,0.544-0.542s0.193-0.476,0.193-0.729c0-0.255-0.066-0.5-0.197-0.735
					c-0.131-0.234-0.314-0.416-0.55-0.543C214.372,9.631,214.132,9.567,213.887,9.567z M213.116,12.006v-1.891h0.65
					c0.221,0,0.382,0.018,0.48,0.053c0.101,0.034,0.18,0.096,0.239,0.183c0.059,0.087,0.088,0.18,0.088,0.276
					c0,0.139-0.049,0.26-0.148,0.361c-0.099,0.103-0.229,0.16-0.393,0.173c0.067,0.027,0.12,0.062,0.16,0.1
					c0.077,0.075,0.171,0.2,0.28,0.376l0.23,0.369h-0.372l-0.168-0.297c-0.132-0.235-0.238-0.382-0.319-0.441
					c-0.056-0.044-0.137-0.064-0.244-0.064h-0.18v0.803H213.116z M213.421,10.941h0.37c0.177,0,0.298-0.025,0.362-0.078
					c0.064-0.054,0.097-0.123,0.097-0.21c0-0.057-0.015-0.106-0.047-0.15c-0.03-0.045-0.074-0.077-0.129-0.1
					c-0.056-0.021-0.158-0.032-0.307-0.032h-0.347V10.941z"/>
			</g>
		</g>
	</g>
</g>
</svg>
