<svg width="392" height="136" viewBox="0 0 392 136" fill="none" xmlns="http://www.w3.org/2000/svg">
<path d="M24.6212 36.9311L98.4831 36.9311L98.4831 98.4827H36.9315L36.9315 61.5518L86.1728 61.5516V49.2415L24.6212 49.2414L24.6212 110.793L110.793 110.793L110.793 24.6208L24.6212 24.6208V36.9311Z" fill="url(#paint0_radial_171_64869)"/>
<path d="M86.1728 73.8619L49.2418 73.8621V86.1724L86.1728 86.1724V73.8619Z" fill="url(#paint1_radial_171_64869)"/>
<path fill-rule="evenodd" clip-rule="evenodd" d="M0 135.413L2.35783e-05 0L135.413 2.35783e-05L135.413 135.413L0 135.413ZM12.3103 12.3103L123.103 12.3103L123.103 123.103L12.3103 123.103L12.3103 12.3103Z" fill="url(#paint2_radial_171_64869)"/>
<path d="M172.803 92.978C170.628 92.978 168.69 92.6007 166.989 91.8461C165.287 91.0767 163.941 89.9448 162.949 88.4504C161.973 86.9412 161.484 85.0621 161.484 82.8131C161.484 80.9192 161.832 79.3286 162.527 78.0414C163.223 76.7541 164.17 75.7184 165.368 74.9342C166.567 74.15 167.928 73.5582 169.452 73.1587C170.991 72.7592 172.604 72.478 174.29 72.3153C176.273 72.1081 177.871 71.9158 179.084 71.7382C180.298 71.5459 181.178 71.2648 181.725 70.8949C182.273 70.525 182.547 69.9775 182.547 69.2525V69.1193C182.547 67.7137 182.103 66.6262 181.215 65.8568C180.342 65.0874 179.099 64.7027 177.486 64.7027C175.785 64.7027 174.431 65.08 173.425 65.8346C172.419 66.5744 171.753 67.5066 171.427 68.6311L162.683 67.9209C163.127 65.8494 164 64.0591 165.302 62.5499C166.604 61.0259 168.283 59.857 170.34 59.0432C172.411 58.2146 174.808 57.8004 177.531 57.8004C179.425 57.8004 181.237 58.0223 182.968 58.4662C184.714 58.9101 186.26 59.5981 187.607 60.5302C188.968 61.4624 190.041 62.6609 190.825 64.1257C191.609 65.5757 192.001 67.3142 192.001 69.3413V92.3343H183.035V87.607H182.769C182.221 88.6723 181.489 89.6119 180.571 90.4257C179.654 91.2246 178.552 91.8535 177.264 92.3122C175.977 92.756 174.49 92.978 172.803 92.978ZM175.511 86.4529C176.902 86.4529 178.13 86.1792 179.195 85.6317C180.261 85.0695 181.097 84.3149 181.703 83.3679C182.31 82.421 182.613 81.3483 182.613 80.1498V76.5322C182.317 76.7245 181.91 76.9021 181.392 77.0648C180.889 77.2128 180.32 77.3533 179.684 77.4865C179.047 77.6049 178.411 77.7158 177.775 77.8194C177.139 77.9082 176.562 77.9896 176.044 78.0635C174.934 78.2263 173.965 78.4852 173.136 78.8403C172.308 79.1954 171.664 79.6763 171.205 80.283C170.747 80.8748 170.517 81.6146 170.517 82.5024C170.517 83.7896 170.983 84.7736 171.916 85.4542C172.863 86.12 174.061 86.4529 175.511 86.4529Z" fill="white"/>
<path d="M199.336 92.3343V58.2442H208.503V64.1922H208.858C209.479 62.0764 210.522 60.4784 211.987 59.3983C213.452 58.3034 215.139 57.756 217.047 57.756C217.521 57.756 218.031 57.7856 218.579 57.8447C219.126 57.9039 219.607 57.9853 220.021 58.0889V66.4782C219.577 66.3451 218.963 66.2267 218.179 66.1231C217.395 66.0196 216.677 65.9678 216.026 65.9678C214.636 65.9678 213.393 66.2711 212.298 66.8777C211.218 67.4696 210.359 68.2982 209.723 69.3635C209.102 70.4288 208.791 71.6569 208.791 73.0477V92.3343H199.336Z" fill="white"/>
<path d="M224.91 92.3343V58.2442H234.076V64.1922H234.431C235.052 62.0764 236.095 60.4784 237.56 59.3983C239.025 58.3034 240.712 57.756 242.62 57.756C243.094 57.756 243.604 57.7856 244.152 57.8447C244.699 57.9039 245.18 57.9853 245.594 58.0889V66.4782C245.151 66.3451 244.536 66.2267 243.752 66.1231C242.968 66.0196 242.25 65.9678 241.599 65.9678C240.209 65.9678 238.966 66.2711 237.871 66.8777C236.791 67.4696 235.933 68.2982 235.296 69.3635C234.675 70.4288 234.364 71.6569 234.364 73.0477V92.3343H224.91Z" fill="white"/>
<path d="M264.432 93.0002C260.925 93.0002 257.907 92.29 255.376 90.8695C252.861 89.4343 250.923 87.4073 249.562 84.7884C248.2 82.1547 247.52 79.0401 247.52 75.4446C247.52 71.938 248.2 68.8604 249.562 66.2119C250.923 63.5634 252.839 61.4994 255.31 60.0198C257.796 58.5402 260.71 57.8004 264.054 57.8004C266.303 57.8004 268.397 58.1629 270.335 58.8879C272.288 59.5981 273.99 60.6708 275.44 62.106C276.905 63.5412 278.044 65.3463 278.858 67.5214C279.672 69.6816 280.078 72.2117 280.078 75.1117V77.7084H251.293V71.8492H271.179C271.179 70.488 270.883 69.2821 270.291 68.2316C269.699 67.181 268.878 66.3599 267.827 65.768C266.792 65.1614 265.586 64.8581 264.21 64.8581C262.774 64.8581 261.502 65.191 260.392 65.8568C259.297 66.5078 258.439 67.3882 257.818 68.4979C257.196 69.5928 256.878 70.8135 256.863 72.1599V77.7306C256.863 79.4174 257.174 80.8748 257.796 82.1029C258.432 83.3309 259.327 84.2779 260.481 84.9437C261.635 85.6095 263.004 85.9424 264.587 85.9424C265.638 85.9424 266.599 85.7945 267.472 85.4986C268.345 85.2026 269.092 84.7588 269.714 84.1669C270.335 83.5751 270.809 82.8501 271.134 81.9919L279.879 82.569C279.435 84.67 278.525 86.5047 277.149 88.0731C275.788 89.6267 274.027 90.8399 271.867 91.7129C269.721 92.5711 267.243 93.0002 264.432 93.0002Z" fill="white"/>
<path d="M301.607 105.828C298.544 105.828 295.918 105.407 293.728 104.563C291.553 103.735 289.822 102.603 288.534 101.168C287.247 99.7324 286.411 98.1196 286.026 96.3293L294.771 95.153C295.037 95.8336 295.459 96.4698 296.036 97.0617C296.613 97.6535 297.375 98.127 298.322 98.4821C299.284 98.852 300.453 99.037 301.829 99.037C303.885 99.037 305.579 98.5339 306.911 97.5278C308.258 96.5364 308.931 94.8719 308.931 92.5341V86.2976H308.531C308.117 87.2445 307.496 88.1397 306.667 88.983C305.838 89.8264 304.773 90.5144 303.471 91.0471C302.169 91.5797 300.615 91.8461 298.81 91.8461C296.251 91.8461 293.92 91.2542 291.819 90.0705C289.733 88.8721 288.068 87.0448 286.825 84.5886C285.597 82.1177 284.983 78.9957 284.983 75.2227C284.983 71.3609 285.612 68.1354 286.87 65.5461C288.128 62.9568 289.799 61.0185 291.886 59.7312C293.987 58.444 296.288 57.8004 298.788 57.8004C300.697 57.8004 302.295 58.1259 303.582 58.7769C304.869 59.4131 305.905 60.2121 306.689 61.1739C307.488 62.1208 308.102 63.0529 308.531 63.9703H308.886V58.2442H318.274V92.6673C318.274 95.5673 317.564 97.9938 316.144 99.9469C314.723 101.9 312.756 103.365 310.24 104.341C307.74 105.333 304.862 105.828 301.607 105.828ZM301.806 84.744C303.33 84.744 304.618 84.3667 305.668 83.6121C306.734 82.8427 307.547 81.7478 308.11 80.3273C308.687 78.8921 308.975 77.1758 308.975 75.1783C308.975 73.1809 308.694 71.4497 308.132 69.9849C307.57 68.5053 306.756 67.3586 305.69 66.5448C304.625 65.731 303.33 65.3241 301.806 65.3241C300.253 65.3241 298.943 65.7458 297.878 66.5892C296.813 67.4178 296.006 68.5719 295.459 70.0515C294.911 71.5311 294.638 73.24 294.638 75.1783C294.638 77.1462 294.911 78.8477 295.459 80.283C296.021 81.7034 296.828 82.8057 297.878 83.5899C298.943 84.3593 300.253 84.744 301.806 84.744Z" fill="white"/>
<path d="M335.253 46.8809V92.3343H325.798V46.8809H335.253Z" fill="white"/>
<path d="M358.229 93.0002C354.782 93.0002 351.8 92.2678 349.285 90.803C346.785 89.3233 344.854 87.2667 343.492 84.633C342.131 81.9845 341.451 78.9143 341.451 75.4225C341.451 71.901 342.131 68.8234 343.492 66.1897C344.854 63.5412 346.785 61.4846 349.285 60.0198C351.8 58.5402 354.782 57.8004 358.229 57.8004C361.677 57.8004 364.651 58.5402 367.151 60.0198C369.667 61.4846 371.605 63.5412 372.966 66.1897C374.327 68.8234 375.008 71.901 375.008 75.4225C375.008 78.9143 374.327 81.9845 372.966 84.633C371.605 87.2667 369.667 89.3233 367.151 90.803C364.651 92.2678 361.677 93.0002 358.229 93.0002ZM358.274 85.6761C359.842 85.6761 361.152 85.2322 362.202 84.3445C363.253 83.4419 364.044 82.2138 364.577 80.6603C365.124 79.1067 365.398 77.3385 365.398 75.3559C365.398 73.3732 365.124 71.6051 364.577 70.0515C364.044 68.4979 363.253 67.2698 362.202 66.3673C361.152 65.4647 359.842 65.0134 358.274 65.0134C356.691 65.0134 355.359 65.4647 354.279 66.3673C353.214 67.2698 352.407 68.4979 351.86 70.0515C351.327 71.6051 351.061 73.3732 351.061 75.3559C351.061 77.3385 351.327 79.1067 351.86 80.6603C352.407 82.2138 353.214 83.4419 354.279 84.3445C355.359 85.2322 356.691 85.6761 358.274 85.6761Z" fill="white"/>
<path d="M386.682 92.9114C385.217 92.9114 383.96 92.3935 382.909 91.3578C381.873 90.3073 381.356 89.0496 381.356 87.5848C381.356 86.1348 381.873 84.8919 382.909 83.8562C383.96 82.8205 385.217 82.3026 386.682 82.3026C388.103 82.3026 389.345 82.8205 390.411 83.8562C391.476 84.8919 392.009 86.1348 392.009 87.5848C392.009 88.5614 391.757 89.4565 391.254 90.2703C390.766 91.0693 390.122 91.7129 389.323 92.2012C388.524 92.6747 387.644 92.9114 386.682 92.9114Z" fill="white"/>
<rect x="160.82" y="30.1562" width="157.466" height="10.051" fill="white"/>
<defs>
<radialGradient id="paint0_radial_171_64869" cx="0" cy="0" r="1" gradientUnits="userSpaceOnUse" gradientTransform="translate(135.414 6.67325e-06) rotate(135) scale(191.504 723.976)">
<stop stop-color="#E7D494"/>
</radialGradient>
<radialGradient id="paint1_radial_171_64869" cx="0" cy="0" r="1" gradientUnits="userSpaceOnUse" gradientTransform="translate(135.414 6.67325e-06) rotate(135) scale(191.504 723.976)">
<stop stop-color="#E7D494"/>
</radialGradient>
<radialGradient id="paint2_radial_171_64869" cx="0" cy="0" r="1" gradientUnits="userSpaceOnUse" gradientTransform="translate(135.414 6.67325e-06) rotate(135) scale(191.504 723.976)">
<stop stop-color="#E7D494"/>
</radialGradient>
</defs>
</svg>
