<svg width="262" height="51" viewBox="0 0 262 51" fill="none" xmlns="http://www.w3.org/2000/svg">
<path d="M30.0605 4.33984C30.0852 0.505362 34.7599 -1.44133 37.4482 1.24707C39.0704 2.86942 38.6201 4.79651 38.6875 5.31152C39.1994 5.37883 41.1334 4.93218 42.7529 6.55176C45.4496 9.24865 43.4783 13.9146 39.6611 13.9395L34.4434 13.9736C37.2867 17.362 39 21.7306 39 26.5C39 37.2696 30.2696 46 19.5 46C8.73045 46 0 37.2696 0 26.5C2.11316e-05 15.7305 8.73046 7 19.5 7C23.3753 7 26.987 8.12994 30.0225 10.0791L30.0605 4.33984ZM17.9805 15.3359C15.1001 12.4556 10.0919 14.5411 10.0654 18.6494L10.0557 20.0547L8.64941 20.0645C4.55943 20.0909 2.44744 25.0909 5.33691 27.9805C7.07206 29.7153 9.14397 29.2365 9.69238 29.3086C9.76493 29.8597 9.28185 31.9253 11.0205 33.6641C13.9009 36.544 18.9091 34.4588 18.9355 30.3506L18.9443 28.9443L20.3516 28.9355C24.4411 28.9086 26.5532 23.909 23.6641 21.0195C21.9292 19.2846 19.8575 19.7633 19.3086 19.6914C19.236 19.1403 19.719 17.0747 17.9805 15.3359Z" fill="white"/>
<g clip-path="url(#clip0_257_117)">
<path d="M87.2769 20.3538H93.5845V23.6303H93.6722C94.3467 22.3688 95.1439 21.4226 96.0726 20.7919C97.0012 20.1611 98.1576 19.8457 99.5593 19.8457C99.9273 19.8457 100.286 19.8632 100.654 19.8895C101.022 19.9158 101.355 19.9771 101.662 20.056V25.8205C101.215 25.6803 100.768 25.5752 100.339 25.5051C99.901 25.435 99.4454 25.4 98.9724 25.4C97.7634 25.4 96.8172 25.5664 96.1164 25.9081C95.4155 26.241 94.8724 26.7141 94.4957 27.3186C94.1189 27.9231 93.8736 28.6414 93.7598 29.4825C93.6459 30.3235 93.5933 31.2521 93.5933 32.2596V40.7925H87.2856V20.3538H87.2769Z" fill="white"/>
<path d="M116.38 38.2257H116.292C115.592 39.3208 114.663 40.1005 113.498 40.5823C112.333 41.0554 111.106 41.3007 109.818 41.3007C108.863 41.3007 107.943 41.1693 107.067 40.8977C106.183 40.6349 105.403 40.2319 104.737 39.6975C104.063 39.1631 103.528 38.506 103.143 37.7176C102.748 36.9291 102.556 36.018 102.556 34.9842C102.556 33.8103 102.775 32.8116 103.204 31.9968C103.642 31.1821 104.229 30.5075 104.974 29.9819C105.718 29.4475 106.568 29.0357 107.514 28.7379C108.469 28.44 109.459 28.2297 110.475 28.0896C111.5 27.9494 112.525 27.8618 113.542 27.8355C114.567 27.8092 115.513 27.7917 116.38 27.7917C116.38 26.6703 115.977 25.7768 115.18 25.1197C114.383 24.4626 113.436 24.1297 112.341 24.1297C111.246 24.1297 110.361 24.3488 109.503 24.778C108.644 25.2161 107.882 25.8118 107.208 26.5652L103.843 23.1135C105.017 22.0184 106.393 21.2037 107.961 20.6518C109.529 20.1086 111.159 19.8282 112.841 19.8282C114.689 19.8282 116.214 20.056 117.405 20.5203C118.596 20.9847 119.551 21.6592 120.261 22.5616C120.979 23.4552 121.47 24.559 121.75 25.8644C122.031 27.1697 122.171 28.6765 122.171 30.3849V40.775H116.371V38.2082L116.38 38.2257ZM114.821 31.8304C114.348 31.8304 113.752 31.8479 113.033 31.8917C112.315 31.9355 111.632 32.0494 110.975 32.2509C110.318 32.4436 109.757 32.7415 109.293 33.1357C108.828 33.53 108.601 34.0731 108.601 34.774C108.601 35.5274 108.925 36.0881 109.564 36.456C110.213 36.824 110.878 36.9992 111.579 36.9992C112.192 36.9992 112.788 36.9116 113.366 36.7451C113.945 36.5787 114.453 36.3421 114.899 36.0268C115.346 35.7201 115.705 35.3259 115.968 34.8528C116.231 34.3797 116.371 33.8191 116.371 33.1708V31.8216H114.812L114.821 31.8304Z" fill="white"/>
<path d="M122.013 20.3538H128.741L132.902 33.1794H132.99L136.477 20.3538H143.371L147.156 33.1794H147.244L151.072 20.3538H157.467L150.196 40.7924H143.976L139.727 27.2134H139.639L135.855 40.7924H129.503L122.022 20.3538H122.013Z" fill="white"/>
<path d="M159.228 9H165.536V22.544H165.624C166.351 21.5628 167.288 20.8707 168.418 20.459C169.557 20.056 170.784 19.8457 172.098 19.8457C173.552 19.8457 174.857 20.1436 176.005 20.7481C177.153 21.3526 178.125 22.1585 178.931 23.166C179.728 24.1735 180.35 25.3299 180.78 26.6353C181.218 27.9406 181.428 29.3073 181.428 30.7353C181.428 32.2771 181.191 33.6964 180.709 34.9842C180.236 36.272 179.553 37.3846 178.668 38.3308C177.783 39.2682 176.723 39.9953 175.497 40.5209C174.262 41.0378 172.886 41.3006 171.379 41.3006C170.652 41.3006 169.96 41.2043 169.321 41.0028C168.672 40.81 168.077 40.556 167.533 40.2494C166.99 39.9427 166.508 39.6011 166.105 39.2156C165.702 38.8389 165.37 38.4622 165.115 38.103H165.028V40.7925H159.228V9ZM165.028 30.5688C165.028 32.1107 165.466 33.3547 166.351 34.3096C167.236 35.2645 168.471 35.7376 170.074 35.7376C171.677 35.7376 172.912 35.2645 173.797 34.3096C174.682 33.3547 175.12 32.1107 175.12 30.5688C175.12 29.0269 174.682 27.7829 173.797 26.828C172.912 25.8731 171.677 25.4 170.074 25.4C168.471 25.4 167.236 25.8731 166.351 26.828C165.466 27.7829 165.028 29.0269 165.028 30.5688Z" fill="white"/>
<path d="M203.627 37.262C202.62 38.5498 201.341 39.5486 199.799 40.2494C198.257 40.9503 196.663 41.3007 195.007 41.3007C193.351 41.3007 191.958 41.0466 190.574 40.5473C189.19 40.0392 187.981 39.3208 186.956 38.3834C185.931 37.446 185.125 36.3159 184.538 35.0018C183.951 33.6877 183.653 32.2159 183.653 30.5864C183.653 28.9569 183.951 27.4851 184.538 26.171C185.125 24.8569 185.931 23.7268 186.956 22.7894C187.981 21.852 189.181 21.1248 190.574 20.6255C191.967 20.1261 193.439 19.8721 195.007 19.8721C196.461 19.8721 197.793 20.1261 198.984 20.6255C200.176 21.1336 201.183 21.852 202.015 22.7894C202.839 23.7268 203.479 24.8569 203.925 26.171C204.372 27.4851 204.6 28.9569 204.6 30.5864V32.5663H189.97C190.224 33.7753 190.767 34.7302 191.608 35.4486C192.449 36.1669 193.483 36.5174 194.718 36.5174C195.752 36.5174 196.628 36.2896 197.346 35.8253C198.064 35.361 198.686 34.7652 199.221 34.0381L203.636 37.2795L203.627 37.262ZM198.292 28.256C198.318 27.1872 197.968 26.2761 197.241 25.5227C196.514 24.7693 195.576 24.3838 194.42 24.3838C193.719 24.3838 193.106 24.4977 192.571 24.7167C192.037 24.9445 191.581 25.2248 191.205 25.5753C190.828 25.9257 190.53 26.3287 190.32 26.793C190.11 27.2573 189.987 27.7392 189.961 28.2473H198.283L198.292 28.256Z" fill="white"/>
<path d="M206.747 20.3538H213.054V23.6303H213.142C213.816 22.3688 214.614 21.4226 215.542 20.7919C216.471 20.1611 217.627 19.8457 219.029 19.8457C219.397 19.8457 219.756 19.8632 220.124 19.8895C220.492 19.9158 220.825 19.9771 221.132 20.056V25.8205C220.685 25.6803 220.238 25.5752 219.809 25.5051C219.371 25.435 218.915 25.4 218.442 25.4C217.233 25.4 216.287 25.5664 215.586 25.9081C214.885 26.241 214.342 26.7141 213.965 27.3186C213.589 27.9231 213.343 28.6414 213.229 29.4825C213.116 30.3235 213.063 31.2521 213.063 32.2596V40.7925H206.755V20.3538H206.747Z" fill="white"/>
<path d="M223.015 20.3538H229.323V23.6303H229.41C230.085 22.3688 230.882 21.4226 231.811 20.7919C232.739 20.1611 233.896 19.8457 235.297 19.8457C235.665 19.8457 236.025 19.8632 236.392 19.8895C236.76 19.9158 237.093 19.9771 237.4 20.056V25.8205C236.953 25.6803 236.506 25.5752 236.077 25.5051C235.639 25.435 235.183 25.4 234.71 25.4C233.501 25.4 232.555 25.5664 231.854 25.9081C231.154 26.241 230.61 26.7141 230.234 27.3186C229.857 27.9231 229.612 28.6414 229.498 29.4825C229.384 30.3235 229.331 31.2521 229.331 32.2596V40.7925H223.024V20.3538H223.015Z" fill="white"/>
<path d="M252.749 44.1128C252.328 45.2078 251.925 46.1715 251.531 47.0125C251.137 47.8536 250.637 48.5632 250.042 49.1326C249.437 49.7108 248.675 50.1401 247.746 50.438C246.818 50.7358 245.6 50.876 244.084 50.876C242.455 50.876 240.887 50.6219 239.371 50.1226L240.212 44.9538C241.167 45.3743 242.148 45.5846 243.156 45.5846C243.857 45.5846 244.435 45.5057 244.882 45.3568C245.328 45.1991 245.705 44.9801 245.994 44.6822C246.292 44.3843 246.537 44.0339 246.73 43.6134C246.923 43.1929 247.133 42.7023 247.361 42.1416L247.825 40.9677L238.872 20.3625H245.688L250.944 33.8628H251.032L255.535 20.3625H262.009L252.758 44.1215L252.749 44.1128Z" fill="white"/>
<path d="M66.8379 11.0146C69.2208 11.0146 71.4816 11.2781 73.6279 11.8125C75.7741 12.3469 77.6401 13.2052 79.2432 14.3965C80.8376 15.5879 82.1085 17.139 83.0459 19.04C83.9832 20.9498 84.4561 23.2629 84.4561 25.9785C84.456 28.3876 83.9999 30.5167 83.0889 32.3477C82.1778 34.1871 80.9517 35.7288 79.4102 36.9727C77.8683 38.2167 76.0891 39.1632 74.0654 39.8115C72.0506 40.4597 69.9302 40.7754 67.7139 40.7754H57V11.0146H66.8379ZM70.6006 20.0928C69.0073 18.4973 66.2585 18.6721 64.458 20.4668C63.4781 21.448 62.952 22.7573 63.0078 24.0576C63.0077 24.0814 63 24.113 63 24.1367V32.6729C63.008 32.7606 63.0478 32.8405 63.1035 32.9043C63.1593 32.9681 63.2473 33 63.335 33H72.4648C72.4967 33 72.5287 33.0003 72.5605 32.9844C73.6599 32.8726 74.7117 32.3617 75.5322 31.54C77.3326 29.7371 77.4995 26.9851 75.9062 25.3896V25.4053C74.6793 24.1769 72.5203 24.304 71.5723 24.4316C71.6997 23.4822 71.827 21.3212 70.6006 20.0928Z" fill="white"/>
<path fill-rule="evenodd" clip-rule="evenodd" d="M68.1785 32.2508H64.3589V28.4399" fill="white"/>
</g>
<defs>
<clipPath id="clip0_257_117">
<rect width="205" height="41.8848" fill="white" transform="translate(57 9)"/>
</clipPath>
</defs>
</svg>
